<svg version="1" xmlns="http://www.w3.org/2000/svg" width="1482.667" height="1482.667" viewBox="0 0 1112.000000 1112.000000"><path d="M455.8 104.5c-.3.3-1.5.8-2.7 1-1.1.3-3.1.7-4.3 1-4.3 1-7.3 1.5-11.8 2-2.5.3-5.6.8-7 1.1-1.4.3-3.6.8-5 1-4.2.7-9.4 1.6-12 2.1-1.4.3-3.4.6-4.5.8-2.6.4-9.7 1.7-11 2-.5.1-2.8.5-5 1-5.5 1-22.7 5.4-24.5 6.2-.8.3-1.8.7-2.2.8-.5.2-.9.3-1 .5-.2.1-1 .3-1.8.5s-6.2 2-12 4c-5.8 1.9-11.3 3.7-12.2 4-.9.2-3.8 1.3-6.4 2.4-2.5 1.2-5 1.9-5.4 1.6-.5-.3-1 0-1.2.7-.2.6-1.2 1.2-2.2 1.4-1 .1-4.2 1.2-7.1 2.4-2.9 1.2-5.9 2.2-6.6 2.4-3.6.5-53.7 25.3-55.9 27.6-.3.3-2.7 1.7-5.5 3-2.7 1.4-5.8 3.3-6.9 4.2-1.1 1-2.6 1.8-3.3 1.8-.7 0-1.3.5-1.3 1 0 .6-.3.9-.7.8-.8-.2-9.2 4.9-19.7 11.9-2.6 1.8-5.2 3.3-5.7 3.3s-.9.3-.9.7c0 .5-1.8 1.9-4 3.3-2.2 1.3-4 2.8-4 3.2 0 .4-.6.8-1.3.8-.7 0-2.4 1.1-3.9 2.5s-3.2 2.5-3.8 2.5c-.6 0-1.3.7-1.6 1.5-.4.8-1.1 1.5-1.6 1.5-.8 0-15.4 11.3-16.8 13-.3.4-1.2 1.1-2.1 1.6-2.6 1.4-12.3 10-22.3 19.6-5 4.9-9.4 8.8-9.8 8.8-.5 0-.8.3-.8.7 0 .5-5.7 6.7-12.8 13.9-16.1 16.5-20.2 21.1-20.2 22.4 0 .5-.4 1-.9 1-.8 0-11 12.9-14.8 18.6-.7 1.1-3.5 5.2-6.3 9.2-2.7 4.1-5 7.8-5 8.3 0 .5-.4.9-1 .9-.5 0-1 .4-1 1 0 .5-1.3 2.9-2.8 5.2-9.2 13.8-11.7 17.3-12.4 17.6-.4.2-.8 1.2-.8 2.2 0 1-.4 2.1-.9 2.5-.9.5-11.6 20.7-11.2 21.3 0 .1-1 2.4-2.3 5.1-1.4 2.7-2.2 5.1-1.9 5.5.4.3.1.6-.5.6-.7 0-1.2.9-1.2 2s-.4 2-.8 2c-.5 0-.9.6-.9 1.2 0 .7-1.2 3.9-2.7 7.1-1.4 3.1-2.6 5.9-2.7 6.2 0 .2-1.8 4.6-4 9.7-2.1 5-3.9 9.5-3.9 9.9 0 .4-.5 2-1.2 3.6-.6 1.5-1.2 3-1.3 3.3-.1.3-1.4 4.5-3 9.5-1.6 4.9-3 9.4-3.1 10-4.2 16-6.5 25.7-6.7 28.2-.1 1.8-.6 3.3-1 3.3-.5 0-.6.3-.4.7.4.7-1.5 12.7-3.8 23.8-.4 1.6-.8 4.8-1 7-.2 2.2-.4 4-.5 4-.1 0-.3 3.4-.6 7.5-1.1 20.6-2 28.8-3.5 32.6-1.2 3.3-1.2 56.7 0 55.9 1.4-.8 2.4 1.4 2.6 6 .1 2.3.5 4.7.9 5.4.4.7.4 1.7-.1 2.4-1.1 1.5-1 5 .5 10.2.6 2.2 1.4 6.2 1.7 9 .3 2.7.8 6.1 1.1 7.3.8 3.9 1.8 10.6 1.8 12.9.1 1.3.4 2.3.8 2.3s.6.8.6 1.7c0 1 .2 2.9.5 4.3 1.4 6.5 3.9 18.6 4.1 19.7.1.7.5 1.6.9 1.9.4.4.7 1.6.7 2.7 0 1.2.4 3.6 1 5.4.5 1.8 1.4 4.8 1.9 6.5 4.9 17.3 13.5 42.3 18.2 52.6 1.2 2.5 2.2 5.2 2.3 5.9.1.7.8 1.9 1.4 2.5.7.7 1.2 1.7 1.2 2.4s1.4 4.1 3.1 7.6c7.3 14.7 12.1 23.9 15.4 29.7 1.9 3.5 3.5 6.7 3.5 7.2s.5.9 1 .9c.6 0 1 .5 1 1.1 0 1.2 10.1 17.3 11.2 17.7.5.2.8 1 .8 1.8s.5 1.4 1 1.4c.6 0 1 .6 1 1.4 0 .8.3 1.6.8 1.8.4.1 2.4 2.5 4.4 5.3 6.5 8.6 12.6 16.4 14.7 18.6.9.9 3.2 3.6 5.1 5.9 3.2 3.9 5.8 6.7 16.6 18.1 4.3 4.7 13.4 13 13.4 12.3 0-.2 1.2.9 2.8 2.4 2.4 2.5 8.4 7.5 17.6 14.5 1.5 1.2 3.3 2.7 4 3.2.6.6 2.7 2.2 4.6 3.5 4.1 2.8 4.4 3.1 8.7 6.6 1.8 1.4 3.3 2.2 3.3 1.8 0-.4.6-.1 1.3.7 1.2 1.6 21.2 14.9 22.3 14.9.3 0 2.6 1.3 5.1 3 2.4 1.6 5 3 5.7 3 .8 0 1.9.7 2.6 1.5.7.9 1.5 1.3 1.8 1 .3-.3 1.2.1 2.1.8.9.7 4.8 2.7 8.6 4.4 3.9 1.7 9.6 4.3 12.8 5.7 3.2 1.4 5.9 2.6 6.2 2.6.2 0 1.4.4 2.7.9 1.3.5 2.8 1 3.3 1.1.6.1 1.5.5 2 1 1.5 1.2 29 9.9 33.6 10.6 2.1.4 3.9.9 3.9 1.3s1.2.8 2.8.9c1.5.1 4.1.6 5.7 1.2 1.7.5 4.1 1.1 5.5 1.3 1.4.2 3.2.7 4 1 2.4 1 17.4 4.1 18.4 3.9.4-.2 1.4.2 2 .8.7.5 1.5.8 1.7.6.2-.3 3.1.2 6.4 1 7.4 1.7 79.8 2 85.5.4 1.9-.6 5.1-1.3 7-1.6 6.8-1.1 7.5-1.2 7.8-1.4.2-.3.1-.2 5.7-1.5 2.2-.5 4.2-.9 4.5-1 3.9-1 10.8-2.5 14.2-3 1.4-.2 3.6-.8 4.7-1.5 1.2-.6 2.1-.9 2.1-.6 0 .4 12.6-2.8 25-6.4 4.1-1.2 8-2.3 8.5-2.4 2.7-.5 9.1-3 10.2-3.8.7-.5 1.7-.7 2.2-.4.5.4 1.2.2 1.5-.3.3-.5 1.8-1.2 3.3-1.6 3.1-.7 24.6-8.4 30.8-11 7.1-3 24.3-11.4 29.7-14.6 6.9-4.2 10.3-6.1 18.5-10.5 3.7-2 8.2-4.7 10-6 1.7-1.3 3.5-2.4 3.8-2.4.4 0 2.5-1.3 4.8-2.8 2.3-1.6 7.8-4.8 12.2-7.2 4.4-2.4 9.5-5.2 11.2-6.1l3.3-1.9 5.2 4.9c11.2 10.3 31.4 25.1 34.4 25.1.7 0 1.4.4 1.6.8.5 1.3 13.9 7.5 25.1 11.6 5.4 2 12.1 4.7 15 6 4.8 2.2 9.4 3.7 15.7 5 1.4.3 4.8 1 7.5 1.6 2.8.6 6.4 1.3 8 1.5 3.4.4 9.7 1.4 12.9 2.1 2.8.6 15.4.6 19.7-.1 1.9-.3 5.9-.7 8.9-1 8.4-.8 14.2-1.5 17-1.9 1.4-.2 4.8-.7 7.5-1 2.8-.4 5.7-1 6.5-1.3.8-.3 3.1-.7 5-.8 9.8-.8 31.8-5.2 33.8-6.8.6-.5 1.2-.7 1.2-.4 0 .4 2.1-.3 4.6-1.3 2.5-1.1 6-2.2 7.7-2.5 2.8-.4 5.4-1 13-3 .9-.3 2.7-.7 3.8-1 3.8-.8 25.3-7.6 27.9-8.7 1.4-.6 2.7-1.2 3-1.3 2.2-.5 11.7-4 13.9-5.1 1.4-.8 2.9-1.4 3.3-1.4 2.3 0 29.6-13.6 41.8-20.8 10.3-6.1 35.8-23 38-25.2 1.6-1.6 10.9-9 11.4-9 1.8 0 28.8-26.6 36.4-35.8 6-7.3 16.2-22.4 16.2-24 0-.6.3-1.2.8-1.4 2.9-1.3 17.4-38.8 17.1-44.2 0-.5.3-1.2.8-1.5 1.1-.8 3.3-5.8 3.3-7.6 0-.8-.9-1.5-2-1.5-1.7 0-1.9-.4-1.4-2.8.4-1.5 1.1-3.5 1.6-4.5.5-.9.6-5.7.3-10.5s-.8-17-1.1-27.2c-1.2-43.2-1.8-58.4-2.8-68.5-.3-2.8-.8-8.6-1.2-13-.9-12-1.2-15.1-3-27.5-.3-1.9-.7-5.5-1-8-.7-5.9-1.2-9-1.8-12-.3-1.4-.8-4.4-1.1-6.8-.3-2.4-1-6.4-1.6-9-.6-2.6-1.3-6.1-1.5-7.7-.3-1.7-.9-5-1.5-7.5-.5-2.5-1.2-5.5-1.4-6.8-3.4-15.8-10.8-42.7-15.7-56.7-2.1-6-4.1-11.7-4.3-12.5-.2-.8-.4-1.6-.5-1.8-.2-.1-.3-.5-.5-1-.2-.9-1-2.9-4.7-11.7-1.6-3.9-2.9-7.1-2.8-7.3 0-.1-1-2.6-2.3-5.5-1.4-2.8-3.5-7.7-4.8-10.6-1.3-3-6.3-13.4-11.3-23-4.9-9.7-9.4-18.6-10-19.8-.6-1.3-1.5-2.3-1.9-2.3-.5 0-.5-.5-.2-1 .3-.6-.1-1.3-.9-1.6-.9-.3-1.6-1.1-1.6-1.7 0-1.1-13.7-24.5-15-25.7-.3-.3-1.6-2.7-3-5.3-1.4-2.7-3.3-5.7-4.2-6.7-1-1.1-1.8-2.2-1.8-2.7 0-1.3-18.9-28.6-20.2-29.1-.4-.2-.8-1-.8-1.7 0-.8-.6-1.8-1.3-2.2-.6-.4-3.2-3.5-5.7-6.8-5.2-7.1-6.8-9.1-9.5-11.9-1.1-1.1-2.7-3.1-3.5-4.2-4.6-6.5-34.2-37.3-47.5-49.3-3.3-2.9-7.7-6.9-9.7-8.7-2-1.9-4-3.4-4.4-3.4-.4 0-1.2-.6-1.8-1.4-.9-1.2-7.4-6.6-16.1-13.4-8.4-6.5-23.7-17.6-33.5-24.2-4.7-3.2-25.2-15.6-29.2-17.7-2.7-1.4-4.8-2.9-4.8-3.3 0-.4-1.2-1.1-2.7-1.5-1.4-.3-3.8-1.5-5.1-2.6-1.4-1-3-1.9-3.8-1.9-.7 0-1.4-.4-1.6-.8-.4-1.1-37.6-19.5-39.4-19.5-.8 0-1.4-.4-1.4-.8 0-.5-1.5-1.2-3.2-1.8-3-.9-22.7-8.2-35.5-13.2-2.9-1.1-5.8-2.2-6.5-2.3-.7-.2-2-.6-2.8-.9-3.5-1.3-17-5.7-22.5-7.2-3.3-.9-7.1-2.1-8.5-2.6-2.3-.8-31-8-37-9.3-9-2-12.8-2.8-15-3.2-1.4-.2-3.6-.7-5-1-1.4-.4-3.6-.8-5-.9-1.4-.2-3.8-.6-5.5-.9-6.1-1.1-9.1-1.5-13.5-2-2.5-.3-5.6-.7-7-1-1.4-.3-5.4-.8-9-1.1-3.6-.4-7.6-.8-9-1-1.4-.2-3.7-.3-5.2-.4-1.8-.1-2.8-.7-2.8-1.6 0-1.3-7.1-1.5-57.8-1.5-31.8 0-58.1.2-58.4.5z"/></svg>